<?xml version="1.0" encoding="UTF-8"?>
<svg width="48px" height="48px" viewBox="0 0 48 48" version="1.1" xmlns="http://www.w3.org/2000/svg" xmlns:xlink="http://www.w3.org/1999/xlink">
    <!-- Generator: sketchtool 49.3 (51167) - http://www.bohemiancoding.com/sketch -->
    <title>A9B80A91-95A6-475D-8D31-50CD7C8AFB36</title>
    <desc>Created with sketchtool.</desc>
    <defs>
        <rect id="path-1" x="0" y="5.71428571" width="11" height="10.2857143" rx="1"></rect>
    </defs>
    <g id="дизайн" stroke="none" stroke-width="1" fill="none" fill-rule="evenodd">
        <g id="Для-школы-разрабов" transform="translate(-16.000000, -505.000000)">
            <g id="Group-58" transform="translate(16.000000, 505.000000)">
                <g id="Group-2" transform="translate(8.000000, 9.000000)">
                    <path d="M26.9565424,11.5428893 L26.9565424,24.5148328 C26.9565424,25.0671175 26.5088271,25.5148328 25.9565424,25.5148328 L8.55966371,25.5148328 C8.00737896,25.5148328 7.55966371,25.0671175 7.55966371,24.5148328 L7.55966371,11.5428893 L5.11046423,11.5428893 C4.55817948,11.5428893 4.11046423,11.0951741 4.11046423,10.5428893 C4.11046423,10.2170159 4.26924842,9.91158158 4.53598125,9.72437281 L16.6836201,1.19844645 C17.0283874,0.956468496 17.4878187,0.956468496 17.832586,1.19844645 L29.9802249,9.72437281 C30.432279,10.041651 30.5415366,10.6653181 30.2242584,11.1173723 C30.0370496,11.3841052 29.7316154,11.5428893 29.4057419,11.5428893 L26.9565424,11.5428893 Z" id="Combined-Shape-Copy-5" fill="#6CDDE1"></path>
                    <path d="M24.3680581,19.1212907 L17.530656,5.85759208 L14.8278979,4.07411884 C14.660854,3.96389129 14.4441743,3.96389129 14.2771303,4.07411884 L1.32073929,12.6236731 C1.18050594,12.7162091 1.09612306,12.8729896 1.09612306,13.0410024 C1.09612306,13.3171448 1.31998069,13.5410024 1.59612306,13.5410024 L4.73697013,13.5410024 L4.73697013,27.0129458 C4.73697013,27.2890882 4.96082775,27.5129458 5.23697013,27.5129458 L23.8680581,27.5129458 C24.1442005,27.5129458 24.3680581,27.2890882 24.3680581,27.0129458 L24.3680581,19.1212907 Z" id="Combined-Shape-Copy-4" stroke="#2E2E2E"></path>
                    <path d="M7.5,21.5 L9.5,21.5 L9.5,17 C9.5,16.7238576 9.27614237,16.5 9,16.5 L8,16.5 C7.72385763,16.5 7.5,16.7238576 7.5,17 L7.5,21.5 Z" id="Rectangle-50-Copy-2" stroke="#2E2E2E"></path>
                    <path d="M11.5,21.5 L13.5,21.5 L13.5,17 C13.5,16.7238576 13.2761424,16.5 13,16.5 L12,16.5 C11.7238576,16.5 11.5,16.7238576 11.5,17 L11.5,21.5 Z" id="Rectangle-50-Copy-3" stroke="#2E2E2E"></path>
                    <path d="M15.5,21.5 L17.5,21.5 L17.5,17 C17.5,16.7238576 17.2761424,16.5 17,16.5 L16,16.5 C15.7238576,16.5 15.5,16.7238576 15.5,17 L15.5,21.5 Z" id="Rectangle-50-Copy-4" stroke="#2E2E2E"></path>
                    <g id="Group-46-Copy" transform="translate(20.000000, 0.000000)">
                        <g id="Rectangle-51">
                            <use fill="#FFFFFF" fill-rule="evenodd" xlink:href="#path-1"></use>
                            <rect stroke="#2E2E2E" stroke-width="1" x="0.5" y="6.21428571" width="10" height="9.28571429" rx="1"></rect>
                        </g>
                        <path d="M2.2,6.28571429 L2.2,3.31143851 C2.2,1.48258152 3.68258152,3.35955579e-16 5.51143851,0 L5.51143851,0 C7.3551926,-3.38692132e-16 8.86421798,1.46710207 8.91615188,3.31012459 L9,6.28571429" id="Path-24" stroke="#2E2E2E"></path>
                        <ellipse id="Oval-31" stroke="#2E2E2E" cx="5.5" cy="10.2857143" rx="1.1" ry="1.14285714"></ellipse>
                        <path d="M5.5,11.4285714 L5.5,13.2355872" id="Path-25" stroke="#2E2E2E" stroke-linecap="round"></path>
                    </g>
                    <path d="M7,13 L11.5,13" id="Path-26" stroke="#2E2E2E" stroke-linecap="round"></path>
                    <path d="M13.4398913,13 L14.5599976,13" id="Path-26-Copy" stroke="#2E2E2E" stroke-linecap="round"></path>
                </g>
            </g>
        </g>
    </g>
</svg>